<svg width="40" height="41" viewBox="0 0 40 41" fill="none" xmlns="http://www.w3.org/2000/svg">
<rect y="0.5" width="40" height="40" rx="8" fill="#FD32C6"/>
<mask id="mask0_6164_38135" style="mask-type:luminance" maskUnits="userSpaceOnUse" x="15" y="10" width="14" height="14">
<path d="M28.6414 10.5H22.7766L15.8711 17.7444V23.7797L28.6414 10.5Z" fill="white"/>
</mask>
<g mask="url(#mask0_6164_38135)">
<path d="M28.6414 10.5H22.7766L15.8711 17.7444V23.7797L28.6414 10.5Z" fill="url(#paint0_linear_6164_38135)"/>
</g>
<mask id="mask1_6164_38135" style="mask-type:luminance" maskUnits="userSpaceOnUse" x="17" y="18" width="13" height="13">
<path d="M29.0887 30.5L20.9401 18.5098L17.625 21.9589L23.3337 30.5H29.0887Z" fill="white"/>
</mask>
<g mask="url(#mask1_6164_38135)">
<path d="M29.0887 30.5L20.9401 18.5098L17.625 21.9564L23.3459 30.5H29.0887Z" fill="url(#paint1_linear_6164_38135)"/>
</g>
<path d="M15.872 30.5H10.9141V10.5H15.872V30.5Z" fill="white"/>
<defs>
<linearGradient id="paint0_linear_6164_38135" x1="15.6668" y1="17.1172" x2="28.1494" y2="17.1172" gradientUnits="userSpaceOnUse">
<stop stop-color="#FD32C6"/>
<stop offset="0.390625" stop-color="white"/>
</linearGradient>
<linearGradient id="paint1_linear_6164_38135" x1="16.5086" y1="21.2535" x2="23.3947" y2="24.9147" gradientUnits="userSpaceOnUse">
<stop stop-color="#FD32C6"/>
<stop offset="0.65625" stop-color="white"/>
</linearGradient>
</defs>
</svg>
