<svg width="40" height="41" viewBox="0 0 40 41" fill="none" xmlns="http://www.w3.org/2000/svg">
<rect y="0.5" width="40" height="40" rx="8" fill="#202859"/>
<mask id="mask0_6164_38161" style="mask-type:luminance" maskUnits="userSpaceOnUse" x="15" y="10" width="14" height="14">
<path d="M28.7312 10.5H22.8665L15.9609 17.7444V23.7797L28.7312 10.5Z" fill="white"/>
</mask>
<g mask="url(#mask0_6164_38161)">
<path d="M28.7312 10.5H22.8665L15.9609 17.7444V23.7797L28.7312 10.5Z" fill="url(#paint0_linear_6164_38161)"/>
</g>
<mask id="mask1_6164_38161" style="mask-type:luminance" maskUnits="userSpaceOnUse" x="17" y="18" width="13" height="13">
<path d="M29.1747 30.5L21.026 18.5098L17.7109 21.9589L23.4197 30.5H29.1747Z" fill="white"/>
</mask>
<g mask="url(#mask1_6164_38161)">
<path d="M29.1747 30.5L21.026 18.5098L17.7109 21.9564L23.4318 30.5H29.1747Z" fill="url(#paint1_linear_6164_38161)"/>
</g>
<path d="M15.958 30.5H11V10.5H15.958V30.5Z" fill="#FF00B9"/>
<defs>
<linearGradient id="paint0_linear_6164_38161" x1="15.7566" y1="17.1172" x2="28.2392" y2="17.1172" gradientUnits="userSpaceOnUse">
<stop/>
<stop offset="0.07" stop-color="#131313"/>
<stop offset="1" stop-color="#00FFFD"/>
</linearGradient>
<linearGradient id="paint1_linear_6164_38161" x1="16.5945" y1="21.2535" x2="23.4806" y2="24.9147" gradientUnits="userSpaceOnUse">
<stop/>
<stop offset="0.13"/>
<stop offset="1" stop-color="#FFA500"/>
</linearGradient>
</defs>
</svg>
