<svg width="36" height="36" viewBox="0 0 36 36" fill="none" xmlns="http://www.w3.org/2000/svg">
<rect width="36" height="36" rx="8" fill="#3396FF"/>
<path d="M12.6862 14.653C15.6176 11.7875 20.3824 11.7875 23.3248 14.653L23.6761 14.9934C23.8188 15.1361 23.8188 15.3667 23.6761 15.5094L22.4684 16.6841C22.3916 16.761 22.2708 16.761 22.2049 16.6841L21.7219 16.212C19.6688 14.2139 16.3532 14.2139 14.3001 16.212L13.7841 16.7171C13.7072 16.7939 13.5865 16.7939 13.5206 16.7171L12.3129 15.5423C12.1702 15.3996 12.1702 15.169 12.3129 15.0263L12.6972 14.653H12.6862ZM25.817 17.0904L26.893 18.1443C27.0357 18.2871 27.0357 18.5176 26.893 18.6604L22.0403 23.3923C21.8975 23.535 21.656 23.535 21.5133 23.3923L18.0659 20.0327C18.0329 19.9998 17.9671 19.9998 17.9341 20.0327L14.4867 23.3923C14.344 23.535 14.1025 23.535 13.9597 23.3923L9.10704 18.6604C8.96432 18.5176 8.96432 18.2871 9.10704 18.1443L10.183 17.0904C10.3257 16.9476 10.5672 16.9476 10.71 17.0904L14.1574 20.4499C14.1903 20.4829 14.2562 20.4829 14.2891 20.4499L17.7365 17.0904C17.8792 16.9476 18.1208 16.9476 18.2635 17.0904L21.7109 20.4499C21.7438 20.4829 21.8097 20.4829 21.8426 20.4499L25.29 17.0904C25.4328 16.9476 25.6743 16.9476 25.817 17.0904Z" fill="white"/>
</svg>
