<?xml version="1.0" encoding="UTF-8" standalone="no"?>
<!DOCTYPE svg PUBLIC "-//W3C//DTD SVG 1.1//EN"
 "http://www.w3.org/Graphics/SVG/1.1/DTD/svg11.dtd">
<!-- Generated by graphviz version 8.0.5 (20230430.1635)
 -->
<!-- Pages: 1 -->
<svg width="1415pt" height="548pt"
 viewBox="0.00 0.00 1414.81 548.00" xmlns="http://www.w3.org/2000/svg" xmlns:xlink="http://www.w3.org/1999/xlink">
<g id="graph0" class="graph" transform="scale(1 1) rotate(0) translate(4 544)">
<polygon fill="white" stroke="none" points="-4,4 -4,-544 1410.81,-544 1410.81,4 -4,4"/>
<!-- [root] digitalocean_database_cluster.chainweb&#45;database (expand) -->
<g id="node1" class="node">
<title>[root] digitalocean_database_cluster.chainweb&#45;database (expand)</title>
<polygon fill="none" stroke="black" points="902.25,-180 618.5,-180 618.5,-144 902.25,-144 902.25,-180"/>
<text text-anchor="middle" x="760.38" y="-156.95" font-family="Times,serif" font-size="14.00">digitalocean_database_cluster.chainweb&#45;database</text>
</g>
<!-- [root] provider[&quot;registry.terraform.io/digitalocean/digitalocean&quot;] -->
<g id="node8" class="node">
<title>[root] provider[&quot;registry.terraform.io/digitalocean/digitalocean&quot;]</title>
<polygon fill="none" stroke="black" points="421.38,-108 100.49,-90 421.37,-72 742.26,-90 421.38,-108"/>
<text text-anchor="middle" x="421.38" y="-84.95" font-family="Times,serif" font-size="14.00">provider[&quot;registry.terraform.io/digitalocean/digitalocean&quot;]</text>
</g>
<!-- [root] digitalocean_database_cluster.chainweb&#45;database (expand)&#45;&gt;[root] provider[&quot;registry.terraform.io/digitalocean/digitalocean&quot;] -->
<g id="edge1" class="edge">
<title>[root] digitalocean_database_cluster.chainweb&#45;database (expand)&#45;&gt;[root] provider[&quot;registry.terraform.io/digitalocean/digitalocean&quot;]</title>
<path fill="none" stroke="black" d="M675.71,-143.52C621.4,-132.3 551.44,-117.86 498.64,-106.95"/>
<polygon fill="black" stroke="black" points="499.49,-103.35 488.98,-104.75 498.07,-110.2 499.49,-103.35"/>
</g>
<!-- [root] var.project_id -->
<g id="node13" class="node">
<title>[root] var.project_id</title>
<polygon fill="none" stroke="black" points="844.88,-108 759.88,-108 759.88,-72 850.88,-72 850.88,-102 844.88,-108"/>
<polyline fill="none" stroke="black" points="844.88,-108 844.88,-102"/>
<polyline fill="none" stroke="black" points="850.88,-102 844.88,-102"/>
<text text-anchor="middle" x="805.38" y="-84.95" font-family="Times,serif" font-size="14.00">var.project_id</text>
</g>
<!-- [root] digitalocean_database_cluster.chainweb&#45;database (expand)&#45;&gt;[root] var.project_id -->
<g id="edge2" class="edge">
<title>[root] digitalocean_database_cluster.chainweb&#45;database (expand)&#45;&gt;[root] var.project_id</title>
<path fill="none" stroke="black" d="M771.5,-143.7C776.62,-135.73 782.81,-126.1 788.49,-117.26"/>
<polygon fill="black" stroke="black" points="791.92,-119.41 794.38,-109.1 786.03,-115.62 791.92,-119.41"/>
</g>
<!-- [root] digitalocean_database_db.indexer (expand) -->
<g id="node2" class="node">
<title>[root] digitalocean_database_db.indexer (expand)</title>
<polygon fill="none" stroke="black" points="860.25,-252 660.5,-252 660.5,-216 860.25,-216 860.25,-252"/>
<text text-anchor="middle" x="760.38" y="-228.95" font-family="Times,serif" font-size="14.00">digitalocean_database_db.indexer</text>
</g>
<!-- [root] digitalocean_database_db.indexer (expand)&#45;&gt;[root] digitalocean_database_cluster.chainweb&#45;database (expand) -->
<g id="edge3" class="edge">
<title>[root] digitalocean_database_db.indexer (expand)&#45;&gt;[root] digitalocean_database_cluster.chainweb&#45;database (expand)</title>
<path fill="none" stroke="black" d="M760.38,-215.7C760.38,-208.24 760.38,-199.32 760.38,-190.97"/>
<polygon fill="black" stroke="black" points="763.88,-191.1 760.38,-181.1 756.88,-191.1 763.88,-191.1"/>
</g>
<!-- [root] digitalocean_droplet.chainweb&#45;data (expand) -->
<g id="node3" class="node">
<title>[root] digitalocean_droplet.chainweb&#45;data (expand)</title>
<polygon fill="none" stroke="black" points="514.12,-396 304.62,-396 304.62,-360 514.12,-360 514.12,-396"/>
<text text-anchor="middle" x="409.38" y="-372.95" font-family="Times,serif" font-size="14.00">digitalocean_droplet.chainweb&#45;data</text>
</g>
<!-- [root] digitalocean_floating_ip.chainweb&#45;node&#45;ip (expand) -->
<g id="node5" class="node">
<title>[root] digitalocean_floating_ip.chainweb&#45;node&#45;ip (expand)</title>
<polygon fill="none" stroke="black" points="534,-324 284.75,-324 284.75,-288 534,-288 534,-324"/>
<text text-anchor="middle" x="409.38" y="-300.95" font-family="Times,serif" font-size="14.00">digitalocean_floating_ip.chainweb&#45;node&#45;ip</text>
</g>
<!-- [root] digitalocean_droplet.chainweb&#45;data (expand)&#45;&gt;[root] digitalocean_floating_ip.chainweb&#45;node&#45;ip (expand) -->
<g id="edge4" class="edge">
<title>[root] digitalocean_droplet.chainweb&#45;data (expand)&#45;&gt;[root] digitalocean_floating_ip.chainweb&#45;node&#45;ip (expand)</title>
<path fill="none" stroke="black" d="M409.38,-359.7C409.38,-352.24 409.38,-343.32 409.38,-334.97"/>
<polygon fill="black" stroke="black" points="412.88,-335.1 409.38,-325.1 405.88,-335.1 412.88,-335.1"/>
</g>
<!-- [root] null_resource.init_db (expand) -->
<g id="node7" class="node">
<title>[root] null_resource.init_db (expand)</title>
<polygon fill="none" stroke="black" points="831.12,-324 699.62,-324 699.62,-288 831.12,-288 831.12,-324"/>
<text text-anchor="middle" x="765.38" y="-300.95" font-family="Times,serif" font-size="14.00">null_resource.init_db</text>
</g>
<!-- [root] digitalocean_droplet.chainweb&#45;data (expand)&#45;&gt;[root] null_resource.init_db (expand) -->
<g id="edge5" class="edge">
<title>[root] digitalocean_droplet.chainweb&#45;data (expand)&#45;&gt;[root] null_resource.init_db (expand)</title>
<path fill="none" stroke="black" d="M498.29,-359.52C556.91,-347.99 632.91,-333.05 688.84,-322.05"/>
<polygon fill="black" stroke="black" points="689.25,-325.34 698.39,-319.97 687.9,-318.47 689.25,-325.34"/>
</g>
<!-- [root] digitalocean_droplet.chainweb&#45;node (expand) -->
<g id="node4" class="node">
<title>[root] digitalocean_droplet.chainweb&#45;node (expand)</title>
<polygon fill="none" stroke="black" points="516,-252 302.75,-252 302.75,-216 516,-216 516,-252"/>
<text text-anchor="middle" x="409.38" y="-228.95" font-family="Times,serif" font-size="14.00">digitalocean_droplet.chainweb&#45;node</text>
</g>
<!-- [root] digitalocean_ssh_key.opact&#45;ssh (expand) -->
<g id="node6" class="node">
<title>[root] digitalocean_ssh_key.opact&#45;ssh (expand)</title>
<polygon fill="none" stroke="black" points="199.5,-180 13.25,-180 13.25,-144 199.5,-144 199.5,-180"/>
<text text-anchor="middle" x="106.38" y="-156.95" font-family="Times,serif" font-size="14.00">digitalocean_ssh_key.opact&#45;ssh</text>
</g>
<!-- [root] digitalocean_droplet.chainweb&#45;node (expand)&#45;&gt;[root] digitalocean_ssh_key.opact&#45;ssh (expand) -->
<g id="edge6" class="edge">
<title>[root] digitalocean_droplet.chainweb&#45;node (expand)&#45;&gt;[root] digitalocean_ssh_key.opact&#45;ssh (expand)</title>
<path fill="none" stroke="black" d="M333.7,-215.52C290.77,-205.6 236.91,-193.16 192.39,-182.87"/>
<polygon fill="black" stroke="black" points="193.41,-179.28 182.88,-180.44 191.83,-186.1 193.41,-179.28"/>
</g>
<!-- [root] var.db_sync_server -->
<g id="node10" class="node">
<title>[root] var.db_sync_server</title>
<polygon fill="none" stroke="black" points="332.88,-180 217.88,-180 217.88,-144 338.88,-144 338.88,-174 332.88,-180"/>
<polyline fill="none" stroke="black" points="332.88,-180 332.88,-174"/>
<polyline fill="none" stroke="black" points="338.88,-174 332.88,-174"/>
<text text-anchor="middle" x="278.38" y="-156.95" font-family="Times,serif" font-size="14.00">var.db_sync_server</text>
</g>
<!-- [root] digitalocean_droplet.chainweb&#45;node (expand)&#45;&gt;[root] var.db_sync_server -->
<g id="edge7" class="edge">
<title>[root] digitalocean_droplet.chainweb&#45;node (expand)&#45;&gt;[root] var.db_sync_server</title>
<path fill="none" stroke="black" d="M376.66,-215.52C359.57,-206.39 338.47,-195.11 320.21,-185.35"/>
<polygon fill="black" stroke="black" points="322.15,-181.89 311.68,-180.26 318.85,-188.06 322.15,-181.89"/>
</g>
<!-- [root] var.kadena_network -->
<g id="node12" class="node">
<title>[root] var.kadena_network</title>
<polygon fill="none" stroke="black" points="476.12,-180 356.62,-180 356.62,-144 482.12,-144 482.12,-174 476.12,-180"/>
<polyline fill="none" stroke="black" points="476.12,-180 476.12,-174"/>
<polyline fill="none" stroke="black" points="482.12,-174 476.12,-174"/>
<text text-anchor="middle" x="419.38" y="-156.95" font-family="Times,serif" font-size="14.00">var.kadena_network</text>
</g>
<!-- [root] digitalocean_droplet.chainweb&#45;node (expand)&#45;&gt;[root] var.kadena_network -->
<g id="edge8" class="edge">
<title>[root] digitalocean_droplet.chainweb&#45;node (expand)&#45;&gt;[root] var.kadena_network</title>
<path fill="none" stroke="black" d="M411.85,-215.7C412.91,-208.24 414.19,-199.32 415.38,-190.97"/>
<polygon fill="black" stroke="black" points="418.98,-191.5 416.93,-181.1 412.05,-190.51 418.98,-191.5"/>
</g>
<!-- [root] var.pvt_key -->
<g id="node15" class="node">
<title>[root] var.pvt_key</title>
<polygon fill="none" stroke="black" points="574.25,-180 500.5,-180 500.5,-144 580.25,-144 580.25,-174 574.25,-180"/>
<polyline fill="none" stroke="black" points="574.25,-180 574.25,-174"/>
<polyline fill="none" stroke="black" points="580.25,-174 574.25,-174"/>
<text text-anchor="middle" x="540.38" y="-156.95" font-family="Times,serif" font-size="14.00">var.pvt_key</text>
</g>
<!-- [root] digitalocean_droplet.chainweb&#45;node (expand)&#45;&gt;[root] var.pvt_key -->
<g id="edge9" class="edge">
<title>[root] digitalocean_droplet.chainweb&#45;node (expand)&#45;&gt;[root] var.pvt_key</title>
<path fill="none" stroke="black" d="M442.09,-215.52C459.18,-206.39 480.28,-195.11 498.54,-185.35"/>
<polygon fill="black" stroke="black" points="499.9,-188.06 507.07,-180.26 496.6,-181.89 499.9,-188.06"/>
</g>
<!-- [root] digitalocean_floating_ip.chainweb&#45;node&#45;ip (expand)&#45;&gt;[root] digitalocean_droplet.chainweb&#45;node (expand) -->
<g id="edge10" class="edge">
<title>[root] digitalocean_floating_ip.chainweb&#45;node&#45;ip (expand)&#45;&gt;[root] digitalocean_droplet.chainweb&#45;node (expand)</title>
<path fill="none" stroke="black" d="M409.38,-287.7C409.38,-280.24 409.38,-271.32 409.38,-262.97"/>
<polygon fill="black" stroke="black" points="412.88,-263.1 409.38,-253.1 405.88,-263.1 412.88,-263.1"/>
</g>
<!-- [root] digitalocean_ssh_key.opact&#45;ssh (expand)&#45;&gt;[root] provider[&quot;registry.terraform.io/digitalocean/digitalocean&quot;] -->
<g id="edge11" class="edge">
<title>[root] digitalocean_ssh_key.opact&#45;ssh (expand)&#45;&gt;[root] provider[&quot;registry.terraform.io/digitalocean/digitalocean&quot;]</title>
<path fill="none" stroke="black" d="M185.05,-143.52C235.05,-132.41 299.32,-118.12 348.22,-107.26"/>
<polygon fill="black" stroke="black" points="348.72,-110.51 357.72,-104.92 347.2,-103.68 348.72,-110.51"/>
</g>
<!-- [root] var.pub_key -->
<g id="node14" class="node">
<title>[root] var.pub_key</title>
<polygon fill="none" stroke="black" points="76.75,-108 0,-108 0,-72 82.75,-72 82.75,-102 76.75,-108"/>
<polyline fill="none" stroke="black" points="76.75,-108 76.75,-102"/>
<polyline fill="none" stroke="black" points="82.75,-102 76.75,-102"/>
<text text-anchor="middle" x="41.38" y="-84.95" font-family="Times,serif" font-size="14.00">var.pub_key</text>
</g>
<!-- [root] digitalocean_ssh_key.opact&#45;ssh (expand)&#45;&gt;[root] var.pub_key -->
<g id="edge12" class="edge">
<title>[root] digitalocean_ssh_key.opact&#45;ssh (expand)&#45;&gt;[root] var.pub_key</title>
<path fill="none" stroke="black" d="M90.31,-143.7C82.59,-135.39 73.2,-125.28 64.72,-116.14"/>
<polygon fill="black" stroke="black" points="67.63,-114.05 58.26,-109.1 62.5,-118.81 67.63,-114.05"/>
</g>
<!-- [root] null_resource.init_db (expand)&#45;&gt;[root] digitalocean_database_db.indexer (expand) -->
<g id="edge13" class="edge">
<title>[root] null_resource.init_db (expand)&#45;&gt;[root] digitalocean_database_db.indexer (expand)</title>
<path fill="none" stroke="black" d="M764.14,-287.7C763.61,-280.24 762.97,-271.32 762.37,-262.97"/>
<polygon fill="black" stroke="black" points="765.8,-262.83 761.6,-253.1 758.82,-263.33 765.8,-262.83"/>
</g>
<!-- [root] provider[&quot;registry.terraform.io/hashicorp/null&quot;] -->
<g id="node9" class="node">
<title>[root] provider[&quot;registry.terraform.io/hashicorp/null&quot;]</title>
<polygon fill="none" stroke="black" points="1142.38,-252 877.94,-234 1142.38,-216 1406.81,-234 1142.38,-252"/>
<text text-anchor="middle" x="1142.38" y="-228.95" font-family="Times,serif" font-size="14.00">provider[&quot;registry.terraform.io/hashicorp/null&quot;]</text>
</g>
<!-- [root] null_resource.init_db (expand)&#45;&gt;[root] provider[&quot;registry.terraform.io/hashicorp/null&quot;] -->
<g id="edge14" class="edge">
<title>[root] null_resource.init_db (expand)&#45;&gt;[root] provider[&quot;registry.terraform.io/hashicorp/null&quot;]</title>
<path fill="none" stroke="black" d="M831.47,-292.73C895.92,-280.76 993.99,-262.55 1062.71,-249.79"/>
<polygon fill="black" stroke="black" points="1063.29,-253.06 1072.48,-247.79 1062.01,-246.18 1063.29,-253.06"/>
</g>
<!-- [root] var.do_token -->
<g id="node11" class="node">
<title>[root] var.do_token</title>
<polygon fill="none" stroke="black" points="458.62,-36 378.12,-36 378.12,0 464.62,0 464.62,-30 458.62,-36"/>
<polyline fill="none" stroke="black" points="458.62,-36 458.62,-30"/>
<polyline fill="none" stroke="black" points="464.62,-30 458.62,-30"/>
<text text-anchor="middle" x="421.38" y="-12.95" font-family="Times,serif" font-size="14.00">var.do_token</text>
</g>
<!-- [root] provider[&quot;registry.terraform.io/digitalocean/digitalocean&quot;]&#45;&gt;[root] var.do_token -->
<g id="edge16" class="edge">
<title>[root] provider[&quot;registry.terraform.io/digitalocean/digitalocean&quot;]&#45;&gt;[root] var.do_token</title>
<path fill="none" stroke="black" d="M421.38,-71.7C421.38,-64.24 421.38,-55.32 421.38,-46.97"/>
<polygon fill="black" stroke="black" points="424.88,-47.1 421.38,-37.1 417.88,-47.1 424.88,-47.1"/>
</g>
<!-- [root] provider[&quot;registry.terraform.io/digitalocean/digitalocean&quot;] (close) -->
<g id="node16" class="node">
<title>[root] provider[&quot;registry.terraform.io/digitalocean/digitalocean&quot;] (close)</title>
<ellipse fill="none" stroke="black" cx="436.38" cy="-450" rx="278.08" ry="18"/>
<text text-anchor="middle" x="436.38" y="-444.95" font-family="Times,serif" font-size="14.00">[root] provider[&quot;registry.terraform.io/digitalocean/digitalocean&quot;] (close)</text>
</g>
<!-- [root] provider[&quot;registry.terraform.io/digitalocean/digitalocean&quot;] (close)&#45;&gt;[root] digitalocean_droplet.chainweb&#45;data (expand) -->
<g id="edge15" class="edge">
<title>[root] provider[&quot;registry.terraform.io/digitalocean/digitalocean&quot;] (close)&#45;&gt;[root] digitalocean_droplet.chainweb&#45;data (expand)</title>
<path fill="none" stroke="black" d="M429.7,-431.7C426.73,-423.98 423.15,-414.71 419.83,-406.11"/>
<polygon fill="black" stroke="black" points="422.84,-405.17 415.97,-397.1 416.31,-407.69 422.84,-405.17"/>
</g>
<!-- [root] provider[&quot;registry.terraform.io/hashicorp/null&quot;] (close) -->
<g id="node17" class="node">
<title>[root] provider[&quot;registry.terraform.io/hashicorp/null&quot;] (close)</title>
<ellipse fill="none" stroke="black" cx="770.38" cy="-378" rx="238.16" ry="18"/>
<text text-anchor="middle" x="770.38" y="-372.95" font-family="Times,serif" font-size="14.00">[root] provider[&quot;registry.terraform.io/hashicorp/null&quot;] (close)</text>
</g>
<!-- [root] provider[&quot;registry.terraform.io/hashicorp/null&quot;] (close)&#45;&gt;[root] null_resource.init_db (expand) -->
<g id="edge17" class="edge">
<title>[root] provider[&quot;registry.terraform.io/hashicorp/null&quot;] (close)&#45;&gt;[root] null_resource.init_db (expand)</title>
<path fill="none" stroke="black" d="M769.14,-359.7C768.61,-352.24 767.97,-343.32 767.37,-334.97"/>
<polygon fill="black" stroke="black" points="770.8,-334.83 766.6,-325.1 763.82,-335.33 770.8,-334.83"/>
</g>
<!-- [root] root -->
<g id="node18" class="node">
<title>[root] root</title>
<ellipse fill="none" stroke="black" cx="589.38" cy="-522" rx="49.3" ry="18"/>
<text text-anchor="middle" x="589.38" y="-516.95" font-family="Times,serif" font-size="14.00">[root] root</text>
</g>
<!-- [root] root&#45;&gt;[root] provider[&quot;registry.terraform.io/digitalocean/digitalocean&quot;] (close) -->
<g id="edge18" class="edge">
<title>[root] root&#45;&gt;[root] provider[&quot;registry.terraform.io/digitalocean/digitalocean&quot;] (close)</title>
<path fill="none" stroke="black" d="M559.51,-507.34C538.03,-497.51 508.63,-484.06 483.93,-472.76"/>
<polygon fill="black" stroke="black" points="485.58,-469.21 475.03,-468.23 482.67,-475.57 485.58,-469.21"/>
</g>
<!-- [root] root&#45;&gt;[root] provider[&quot;registry.terraform.io/hashicorp/null&quot;] (close) -->
<g id="edge19" class="edge">
<title>[root] root&#45;&gt;[root] provider[&quot;registry.terraform.io/hashicorp/null&quot;] (close)</title>
<path fill="none" stroke="black" d="M631.84,-512.37C660.47,-504.74 697.57,-491.13 723.38,-468 741.82,-451.47 754.25,-425.96 761.67,-406.48"/>
<polygon fill="black" stroke="black" points="765.21,-407.97 765.28,-397.37 758.62,-405.61 765.21,-407.97"/>
</g>
</g>
</svg>
